<?xml version="1.0" standalone="no"?>
<!DOCTYPE svg PUBLIC "-//W3C//DTD SVG 20010904//EN"
 "http://www.w3.org/TR/2001/REC-SVG-20010904/DTD/svg10.dtd">
<svg version="1.0" xmlns="http://www.w3.org/2000/svg"
 width="981.000000pt" height="882.000000pt" viewBox="0 0 981.000000 882.000000"
 preserveAspectRatio="xMidYMid meet">

<g transform="translate(0.000000,882.000000) scale(0.100000,-0.100000)"
fill="rgba(100,21,255,1)" stroke="none">
<path d="M6905 8809 c-435 -36 -873 -186 -1240 -427 -229 -150 -404 -307 -627
-564 -65 -76 -123 -138 -128 -138 -5 0 -67 67 -139 149 -276 314 -541 528
-861 695 -432 224 -776 296 -1359 283 -212 -5 -262 -9 -364 -31 -424 -91 -797
-259 -1132 -510 -157 -118 -394 -355 -513 -513 -264 -354 -450 -787 -507
-1183 -36 -252 -29 -667 16 -944 76 -469 275 -871 634 -1281 150 -171 1812
-1893 3311 -3430 788 -808 895 -915 913 -915 37 0 326 293 2011 2040 619 641
1357 1406 1641 1700 568 588 648 677 777 857 212 298 379 687 437 1017 38 220
44 741 10 961 -60 399 -246 829 -506 1175 -353 469 -886 829 -1450 979 -289
77 -614 105 -924 80z m-3976 -349 c424 -45 910 -244 1211 -495 179 -150 394
-392 539 -607 80 -119 163 -202 211 -211 73 -15 143 46 265 230 103 157 191
269 295 377 439 458 1048 716 1688 716 1135 0 2103 -817 2303 -1945 27 -149
37 -479 20 -635 -34 -315 -138 -637 -295 -914 -103 -181 -193 -297 -407 -521
-705 -738 -3307 -3433 -3616 -3745 l-233 -235 -248 250 c-471 476 -3469 3585
-3722 3860 -147 159 -261 331 -364 545 -104 219 -175 448 -212 690 -24 158
-24 454 0 610 129 844 625 1505 1382 1841 202 90 471 166 659 187 111 13 411
14 524 2z"/>
</g>
</svg>
