<svg version="1.1" id="Layer_1" xmlns="http://www.w3.org/2000/svg" xmlns:xlink="http://www.w3.org/1999/xlink" x="0px" y="0px"
	 width="100%" viewBox="0 0 976 976" enable-background="new 0 0 976 976" xml:space="preserve">
<path fill="red" opacity="1.000000" stroke="none" 
	d="
M1.000000,748.468628 
	C3.316146,737.291931 4.225900,726.342346 6.991593,715.692688 
	C16.951397,677.341187 36.262295,644.479553 64.225845,616.521851 
	C132.335907,548.426147 200.469513,480.353516 268.409668,412.088531 
	C297.294281,383.065765 331.023712,362.699524 370.833282,352.709473 
	C394.615479,346.741425 418.725250,345.242401 443.133453,347.506714 
	C484.542267,351.348114 521.545105,366.195129 554.347473,391.643311 
	C560.669678,396.548096 566.641052,401.871857 572.328003,407.508911 
	C584.539062,419.612976 585.047607,438.301666 573.476501,450.097137 
	C562.179382,461.613342 543.425049,461.616577 531.191772,449.751587 
	C518.631165,437.569153 504.649658,427.530243 488.819855,420.068329 
	C462.916138,407.857697 435.742035,403.237091 407.232239,406.098846 
	C368.588776,409.977753 336.629486,426.993500 309.520081,454.404266 
	C262.535217,501.911346 215.234344,549.105896 168.046814,596.412415 
	C146.746536,617.766357 125.369850,639.044189 104.082726,660.411255 
	C79.607918,684.977905 64.884193,714.616577 60.544498,748.864563 
	C50.073757,831.497681 105.692894,905.241943 183.887390,919.697998 
	C237.514786,929.612244 284.211700,914.913330 322.903046,876.582520 
	C379.366791,820.644714 435.351227,764.223083 491.572571,708.040283 
	C496.384918,703.231201 500.881989,698.027039 507.286804,695.078308 
	C520.066711,689.194580 534.428467,692.542236 543.238831,703.583008 
	C551.458923,713.884094 551.715820,729.174683 542.998535,739.670715 
	C537.060120,746.820923 530.178284,753.201294 523.580444,759.787842 
	C486.431641,796.872437 449.242584,833.916809 412.064087,870.971680 
	C394.595062,888.382751 377.300018,905.973267 359.603455,923.149963 
	C332.826111,949.140869 300.991089,966.149170 264.876434,975.283264 
	C263.431610,975.648682 262.022186,976.154053 260.298126,976.797119 
	C229.312439,977.000000 198.624878,977.000000 167.170197,976.796387 
	C165.625992,976.294983 164.872040,975.893433 164.068497,975.714417 
	C143.768311,971.192139 124.643143,963.619385 106.768074,953.055481 
	C56.378094,923.275452 23.371233,880.118713 7.635378,823.717834 
	C4.273788,811.669067 2.933779,799.288818 1.000000,787.000000 
	C1.000000,774.312439 1.000000,761.624878 1.000000,748.468628 
z"/>
<path fill="red" opacity="1.000000" stroke="none" 
	d="
M977.000000,258.531342 
	C973.237427,272.279724 969.570679,285.577820 963.980652,298.266632 
	C954.010010,320.899048 941.004150,341.561157 923.592773,359.161316 
	C888.313293,394.823029 852.753601,430.207336 817.328064,465.724640 
	C783.444458,499.695984 749.405701,533.515015 715.766663,567.726929 
	C684.732849,599.289429 648.569946,621.742310 604.908875,630.614075 
	C537.761475,644.258240 477.120789,629.811646 423.529266,586.850464 
	C418.339325,582.690002 413.348907,578.207153 408.720062,573.433533 
	C392.802673,557.018555 399.842865,530.289917 421.780273,524.424438 
	C432.844238,521.466309 442.870026,524.330688 451.193665,532.460693 
	C473.357635,554.109192 499.505585,568.489441 530.037292,573.928833 
	C580.644226,582.944763 626.105591,571.043396 663.500610,535.635986 
	C702.694885,498.524811 740.209961,459.639008 778.417725,421.487518 
	C811.437073,388.516693 844.528687,355.616669 877.343628,322.443146 
	C902.781006,296.727814 917.816528,265.912628 921.816467,229.743057 
	C930.729004,149.150833 875.828430,75.354805 795.442932,61.720413 
	C743.435425,52.899284 697.666809,67.427994 660.045105,104.660568 
	C601.414551,162.684738 543.293945,221.224045 484.940430,279.528229 
	C470.385620,294.070770 447.854187,292.472565 437.419647,276.220367 
	C429.782928,264.325928 431.450958,249.277573 441.973267,238.659439 
	C460.622925,219.839966 479.455597,201.201965 498.193787,182.470123 
	C537.085632,143.591400 576.069458,104.804047 614.818420,65.783401 
	C646.981995,33.394398 685.167786,12.436287 730.067810,3.914204 
	C735.773560,2.831236 741.562927,2.188812 747.656799,1.171149 
	C761.020874,1.000000 774.041809,1.000000 787.899414,1.143377 
	C812.014832,3.842587 834.581421,9.194459 855.929932,18.984146 
	C905.333191,41.638821 941.197876,77.770401 963.516541,127.368965 
	C969.410522,140.467010 973.152527,154.242188 977.000000,168.000000 
	C977.000000,198.020889 977.000000,228.041794 977.000000,258.531342 
z"/>
</svg>